<svg width="35" height="35" viewBox="0 0 35 35" fill="none" xmlns="http://www.w3.org/2000/svg">
<g id="camera-01">
<g id="Icon">
<path d="M2.91675 12.2169C2.91675 11.706 2.91675 11.4505 2.93807 11.2354C3.14367 9.16026 4.78526 7.51867 6.86039 7.31307C7.07554 7.29175 7.34477 7.29175 7.88322 7.29175C8.0907 7.29175 8.19444 7.29175 8.28252 7.28641C9.40722 7.2183 10.3921 6.50844 10.8124 5.463C10.8453 5.38112 10.8761 5.28883 10.9376 5.10425C10.9991 4.91966 11.0299 4.82737 11.0628 4.7455C11.4831 3.70005 12.4679 2.9902 13.5926 2.92208C13.6807 2.91675 13.778 2.91675 13.9726 2.91675H21.0276C21.2222 2.91675 21.3194 2.91675 21.4075 2.92208C22.5322 2.9902 23.5171 3.70005 23.9374 4.7455C23.9703 4.82737 24.0011 4.91966 24.0626 5.10425C24.1241 5.28883 24.1549 5.38112 24.1878 5.463C24.6081 6.50844 25.5929 7.2183 26.7176 7.28641C26.8057 7.29175 26.9095 7.29175 27.1169 7.29175C27.6554 7.29175 27.9246 7.29175 28.1398 7.31307C30.2149 7.51867 31.8565 9.16026 32.0621 11.2354C32.0834 11.4505 32.0834 11.706 32.0834 12.2169V23.6251C32.0834 26.0753 32.0834 27.3004 31.6066 28.2363C31.1871 29.0595 30.5178 29.7288 29.6946 30.1482C28.7588 30.6251 27.5336 30.6251 25.0834 30.6251H9.91675C7.46652 30.6251 6.2414 30.6251 5.30554 30.1482C4.48233 29.7288 3.81304 29.0595 3.39359 28.2363C2.91675 27.3004 2.91675 26.0753 2.91675 23.6251V12.2169Z" stroke="black" stroke-width="2" stroke-linecap="round" stroke-linejoin="round"/>
<path d="M17.5001 24.0626C20.7217 24.0626 23.3334 21.4509 23.3334 18.2292C23.3334 15.0076 20.7217 12.3959 17.5001 12.3959C14.2784 12.3959 11.6667 15.0076 11.6667 18.2292C11.6667 21.4509 14.2784 24.0626 17.5001 24.0626Z" stroke="black" stroke-width="2" stroke-linecap="round" stroke-linejoin="round"/>
</g>
</g>
</svg>
